<?xml version="1.0" standalone="no"?>
<!DOCTYPE svg PUBLIC "-//W3C//DTD SVG 20010904//EN"
 "http://www.w3.org/TR/2001/REC-SVG-20010904/DTD/svg10.dtd">
<svg version="1.0" xmlns="http://www.w3.org/2000/svg"
 width="256.000000pt" height="256.000000pt" viewBox="0 0 256.000000 256.000000"
 preserveAspectRatio="xMidYMid meet">
<metadata>
Created by potrace 1.16, written by Peter Selinger 2001-2019
</metadata>
<g transform="translate(0.000000,256.000000) scale(0.100000,-0.100000)"
fill="#000000" stroke="none">
<path d="M1785 2470 l290 -5 -290 -4 c-159 -2 -294 -3 -298 -2 -5 1 -6 -3 -2
-9 8 -13 -284 -520 -298 -517 -6 1 -12 -8 -13 -20 -1 -12 2 -21 7 -20 6 2 309
-507 309 -520 0 -2 -5 -1 -12 3 -7 4 -8 3 -4 -5 4 -6 11 -9 16 -6 4 3 10 -4
13 -15 5 -20 12 -20 288 -18 242 3 282 5 284 18 3 16 291 518 308 535 5 6 4
-1 -2 -15 -11 -23 -11 -23 3 -7 8 11 12 26 8 35 -3 10 -75 136 -160 282 -85
146 -155 272 -156 280 -3 13 -43 15 -292 15 l-289 1 290 -6z"/>
<path d="M480 1826 c-5 -13 -77 -141 -160 -285 l-152 -261 151 -260 c83 -143
156 -271 161 -285 l10 -25 283 0 c309 0 295 -2 326 58 18 35 5 26 -18 -13
l-20 -35 -288 2 -288 3 288 5 288 5 154 265 c85 146 154 272 154 280 0 8 -69
134 -154 280 l-154 265 -288 5 -288 5 288 3 288 2 20 -35 c23 -39 36 -48 18
-12 -31 59 -17 57 -326 57 l-283 0 -10 -24z"/>
<path d="M1500 1211 c0 -11 -5 -23 -12 -27 -7 -5 -8 -3 -3 6 5 9 4 11 -4 6 -6
-4 -9 -12 -5 -17 7 -12 -287 -520 -297 -513 -16 9 -18 -14 -3 -32 14 -18 15
-18 4 3 -6 13 -9 23 -6 23 11 0 317 -541 311 -550 -4 -6 -3 -10 2 -9 4 1 139
0 298 -2 l290 -4 -290 -5 -290 -6 289 1 c249 0 289 2 292 15 1 8 71 134 156
280 85 146 157 272 160 282 4 9 0 24 -8 35 -14 16 -14 16 -3 -7 6 -14 7 -20 2
-15 -17 16 -305 519 -308 535 -2 13 -43 15 -288 18 -279 2 -287 2 -287 -17z"/>
</g>
</svg>
