<svg version="1.1" xmlns="http://www.w3.org/2000/svg" viewBox="0 0 461.34836134337274 443.5562146275688" width="1384.0450840301182" height="1330.6686438827064">
  <!-- svg-source:excalidraw -->
  
  <defs>
    <style class="style-fonts">
      
    </style>
    
  </defs>
  <g stroke-linecap="round" transform="translate(90.19016989944475 6.9773530812044555) rotate(44.99999999999995 129.48854565241845 160.72793263533322)"><path d="M162.5 40.25 C186.76 70.78, 211.02 101.3, 226.48 120.75 C258.98 161, 258.98 161, 226.48 201.25 C205.41 227.58, 184.34 253.92, 162.5 281.21 C130 321.46, 130 321.46, 97.5 281.21 C78.6 257.96, 59.7 234.71, 32.5 201.25 C0 161, 0 161, 32.5 120.75 C54.37 93.66, 76.24 66.58, 97.5 40.25 C130 0, 130 0, 162.5 40.25" stroke="none" stroke-width="0" fill="#4dabf7"></path><path d="M162.5 40.25 C176.02 57.26, 189.53 74.27, 226.48 120.75 M162.5 40.25 C183.22 66.32, 203.94 92.4, 226.48 120.75 M226.48 120.75 C258.98 161, 258.98 161, 226.48 201.25 M226.48 120.75 C258.98 161, 258.98 161, 226.48 201.25 M226.48 201.25 C209.41 222.58, 192.34 243.91, 162.5 281.21 M226.48 201.25 C204.59 228.6, 182.7 255.95, 162.5 281.21 M162.5 281.21 C130 321.46, 130 321.46, 97.5 281.21 M162.5 281.21 C130 321.46, 130 321.46, 97.5 281.21 M97.5 281.21 C81.52 261.55, 65.54 241.89, 32.5 201.25 M97.5 281.21 C77.43 256.52, 57.36 231.83, 32.5 201.25 M32.5 201.25 C0 161, 0 161, 32.5 120.75 M32.5 201.25 C0 161, 0 161, 32.5 120.75 M32.5 120.75 C54.08 94.03, 75.65 67.31, 97.5 40.25 M32.5 120.75 C51.73 96.93, 70.97 73.11, 97.5 40.25 M97.5 40.25 C130 0, 130 0, 162.5 40.25 M97.5 40.25 C130 0, 130 0, 162.5 40.25" stroke="#4dabf7" stroke-width="2" fill="none"></path></g><g stroke-linecap="round" transform="translate(134.98443476290026 12.68628866769268) rotate(44.99999999999995 180.7766494956644 131.65229649344064)"><path d="M226.25 33 C251.61 51.59, 276.97 70.17, 316.3 99 C361.55 132, 361.55 132, 316.3 165 C290.43 183.76, 264.56 202.53, 226.25 230.3 C181 263.3, 181 263.3, 135.75 230.3 C102.86 206.57, 69.97 182.84, 45.25 165 C0 132, 0 132, 45.25 99 C69.82 81.08, 94.39 63.16, 135.75 33 C181 0, 181 0, 226.25 33" stroke="none" stroke-width="0" fill="#4dabf7"></path><path d="M226.25 33 C252.83 52.48, 279.4 71.95, 316.3 99 M226.25 33 C247.19 48.35, 268.14 63.7, 316.3 99 M316.3 99 C361.55 132, 361.55 132, 316.3 165 M316.3 99 C361.55 132, 361.55 132, 316.3 165 M316.3 165 C287.63 185.79, 258.96 206.59, 226.25 230.3 M316.3 165 C295.91 179.79, 275.52 194.57, 226.25 230.3 M226.25 230.3 C181 263.3, 181 263.3, 135.75 230.3 M226.25 230.3 C181 263.3, 181 263.3, 135.75 230.3 M135.75 230.3 C109.45 211.33, 83.16 192.35, 45.25 165 M135.75 230.3 C108.63 210.74, 81.51 191.17, 45.25 165 M45.25 165 C0 132, 0 132, 45.25 99 M45.25 165 C0 132, 0 132, 45.25 99 M45.25 99 C78.06 75.07, 110.87 51.15, 135.75 33 M45.25 99 C68.71 81.89, 92.17 64.78, 135.75 33 M135.75 33 C181 0, 181 0, 226.25 33 M135.75 33 C181 0, 181 0, 226.25 33" stroke="#4dabf7" stroke-width="2" fill="none"></path></g><g stroke-linecap="round" transform="translate(155.40356912861444 90.01665600601609) rotate(44.99999999999995 133.45489341601717 151.85491375977085)"><path d="M167.5 38 C186.87 60.33, 206.24 82.67, 233.41 114 C266.91 152, 266.91 152, 233.41 190 C209.39 217.59, 185.38 245.18, 167.5 265.71 C134 303.71, 134 303.71, 100.5 265.71 C77.33 239.53, 54.16 213.34, 33.5 190 C0 152, 0 152, 33.5 114 C48.77 96.68, 64.04 79.36, 100.5 38 C134 0, 134 0, 167.5 38" stroke="none" stroke-width="0" fill="#1971c2"></path><path d="M167.5 38 C180.93 53.49, 194.36 68.97, 233.41 114 M167.5 38 C190.86 64.93, 214.21 91.86, 233.41 114 M233.41 114 C266.91 152, 266.91 152, 233.41 190 M233.41 114 C266.91 152, 266.91 152, 233.41 190 M233.41 190 C217.11 208.72, 200.82 227.44, 167.5 265.71 M233.41 190 C212.79 213.69, 192.16 237.38, 167.5 265.71 M167.5 265.71 C134 303.71, 134 303.71, 100.5 265.71 M167.5 265.71 C134 303.71, 134 303.71, 100.5 265.71 M100.5 265.71 C75.09 236.99, 49.68 208.28, 33.5 190 M100.5 265.71 C78.41 240.75, 56.32 215.79, 33.5 190 M33.5 190 C0 152, 0 152, 33.5 114 M33.5 190 C0 152, 0 152, 33.5 114 M33.5 114 C59.37 84.65, 85.25 55.3, 100.5 38 M33.5 114 C52.05 92.96, 70.6 71.91, 100.5 38 M100.5 38 C134 0, 134 0, 167.5 38 M100.5 38 C134 0, 134 0, 167.5 38" stroke="#1971c2" stroke-width="2" fill="none"></path></g><g stroke-linecap="round" transform="translate(152.1469098048351 20.04217240543312) rotate(44.99999999999995 138.6285343013368 150.21044107589273)"><path d="M173.75 37.75 C190.37 56, 207 74.26, 242.51 113.25 C277.26 151, 277.26 151, 242.51 188.75 C224.15 208.49, 205.79 228.23, 173.75 262.67 C139 300.42, 139 300.42, 104.25 262.67 C84.21 241.35, 64.16 220.03, 34.75 188.75 C0 151, 0 151, 34.75 113.25 C61.84 83.82, 88.93 54.4, 104.25 37.75 C139 0, 139 0, 173.75 37.75" stroke="none" stroke-width="0" fill="#228be6"></path><path d="M173.75 37.75 C191.86 57.63, 209.97 77.52, 242.51 113.25 M173.75 37.75 C199.56 66.09, 225.38 94.44, 242.51 113.25 M242.51 113.25 C277.26 151, 277.26 151, 242.51 188.75 M242.51 113.25 C277.26 151, 277.26 151, 242.51 188.75 M242.51 188.75 C222.81 209.92, 203.12 231.1, 173.75 262.67 M242.51 188.75 C219.33 213.67, 196.16 238.58, 173.75 262.67 M173.75 262.67 C139 300.42, 139 300.42, 104.25 262.67 M173.75 262.67 C139 300.42, 139 300.42, 104.25 262.67 M104.25 262.67 C88.04 245.43, 71.83 228.19, 34.75 188.75 M104.25 262.67 C77.94 234.68, 51.62 206.7, 34.75 188.75 M34.75 188.75 C0 151, 0 151, 34.75 113.25 M34.75 188.75 C0 151, 0 151, 34.75 113.25 M34.75 113.25 C62.29 83.34, 89.82 53.42, 104.25 37.75 M34.75 113.25 C55.09 91.15, 75.44 69.05, 104.25 37.75 M104.25 37.75 C139 0, 139 0, 173.75 37.75 M104.25 37.75 C139 0, 139 0, 173.75 37.75" stroke="#228be6" stroke-width="2" fill="none"></path></g><g stroke-linecap="round" transform="translate(224.89732406393796 38.772553036006684) rotate(44.99999999999995 109.87539673857168 88.59444738502089)"><path d="M137.5 22.25 C152.54 35.98, 165.5 43.32, 192.25 66.75 C222.07 88.15, 218.56 91.81, 192.25 111.25 C177.61 121.77, 160.91 136.09, 137.5 154.94 C111.65 177.1, 109.58 175.34, 82.5 154.94 C70.82 142.23, 55.85 132.18, 27.5 111.25 C-2.6 91.68, 3.23 85.79, 27.5 66.75 C39.77 59.4, 54.55 45.99, 82.5 22.25 C109.33 -3.4, 109.45 -3.51, 137.5 22.25" stroke="none" stroke-width="0" fill="#4dabf7"></path><path d="M137.5 22.25 C152.48 33.22, 167.21 43.61, 192.25 66.75 M137.5 22.25 C154.73 35.67, 172.08 48.48, 192.25 66.75 M192.25 66.75 C219.09 89.82, 218.95 89.83, 192.25 111.25 M192.25 66.75 C218.54 87.64, 219.44 89.97, 192.25 111.25 M192.25 111.25 C178.95 121.38, 165.85 133.18, 137.5 154.94 M192.25 111.25 C175.73 124.11, 158.49 138.09, 137.5 154.94 M137.5 154.94 C108.92 178.71, 110.61 177.78, 82.5 154.94 M137.5 154.94 C111.82 177.03, 108.46 177.39, 82.5 154.94 M82.5 154.94 C68 144.21, 53.88 131.68, 27.5 111.25 M82.5 154.94 C61.7 137.83, 39.02 119.39, 27.5 111.25 M27.5 111.25 C0.64 88.86, -1.81 87.46, 27.5 66.75 M27.5 111.25 C1.98 87.08, 2.21 88.91, 27.5 66.75 M27.5 66.75 C45.5 51.8, 64.67 37.22, 82.5 22.25 M27.5 66.75 C41.04 55.01, 55.45 44.59, 82.5 22.25 M82.5 22.25 C111.58 -0.21, 109.7 0.43, 137.5 22.25 M82.5 22.25 C109.86 1.37, 108.66 1.08, 137.5 22.25" stroke="#4dabf7" stroke-width="2" fill="none"></path></g><g stroke-linecap="round" transform="translate(108.52067420546837 116.44421741756105) rotate(44.99999999999995 175.67933273824474 60.70413698209882)"><path d="M30.35 0 C109.14 0, 187.92 0, 321.01 0 C341.24 0, 351.36 10.12, 351.36 30.35 C351.36 51.02, 351.36 71.69, 351.36 91.06 C351.36 111.29, 341.24 121.41, 321.01 121.41 C246.99 121.41, 172.97 121.41, 30.35 121.41 C10.12 121.41, 0 111.29, 0 91.06 C0 72.29, 0 53.53, 0 30.35 C0 10.12, 10.12 0, 30.35 0" stroke="none" stroke-width="0" fill="#1971c2"></path><path d="M30.35 0 C127.85 0, 225.34 0, 321.01 0 M30.35 0 C143.57 0, 256.79 0, 321.01 0 M321.01 0 C341.24 0, 351.36 10.12, 351.36 30.35 M321.01 0 C341.24 0, 351.36 10.12, 351.36 30.35 M351.36 30.35 C351.36 42.5, 351.36 54.64, 351.36 91.06 M351.36 30.35 C351.36 52.03, 351.36 73.72, 351.36 91.06 M351.36 91.06 C351.36 111.29, 341.24 121.41, 321.01 121.41 M351.36 91.06 C351.36 111.29, 341.24 121.41, 321.01 121.41 M321.01 121.41 C230.61 121.41, 140.22 121.41, 30.35 121.41 M321.01 121.41 C238.17 121.41, 155.33 121.41, 30.35 121.41 M30.35 121.41 C10.12 121.41, 0 111.29, 0 91.06 M30.35 121.41 C10.12 121.41, 0 111.29, 0 91.06 M0 91.06 C0 73.91, 0 56.77, 0 30.35 M0 91.06 C0 69.99, 0 48.92, 0 30.35 M0 30.35 C0 10.12, 10.12 0, 30.35 0 M0 30.35 C0 10.12, 10.12 0, 30.35 0" stroke="#1971c2" stroke-width="2" fill="none"></path></g><g stroke-linecap="round" transform="translate(44.32586643164609 195.08789583179532) rotate(315 21.312369489924322 6.603832657770226)"><path d="M3.3 0 C15.88 0, 28.46 0, 39.32 0 C41.52 0, 42.62 1.1, 42.62 3.3 C42.62 5.02, 42.62 6.74, 42.62 9.91 C42.62 12.11, 41.52 13.21, 39.32 13.21 C30.72 13.21, 22.11 13.21, 3.3 13.21 C1.1 13.21, 0 12.11, 0 9.91 C0 7.48, 0 5.06, 0 3.3 C0 1.1, 1.1 0, 3.3 0" stroke="none" stroke-width="0" fill="#4dabf7"></path><path d="M3.3 0 C13.27 0, 23.23 0, 39.32 0 M3.3 0 C14.83 0, 26.35 0, 39.32 0 M39.32 0 C41.52 0, 42.62 1.1, 42.62 3.3 M39.32 0 C41.52 0, 42.62 1.1, 42.62 3.3 M42.62 3.3 C42.62 5.23, 42.62 7.16, 42.62 9.91 M42.62 3.3 C42.62 4.82, 42.62 6.34, 42.62 9.91 M42.62 9.91 C42.62 12.11, 41.52 13.21, 39.32 13.21 M42.62 9.91 C42.62 12.11, 41.52 13.21, 39.32 13.21 M39.32 13.21 C26.35 13.21, 13.38 13.21, 3.3 13.21 M39.32 13.21 C27.09 13.21, 14.86 13.21, 3.3 13.21 M3.3 13.21 C1.1 13.21, 0 12.11, 0 9.91 M3.3 13.21 C1.1 13.21, 0 12.11, 0 9.91 M0 9.91 C0 7.86, 0 5.81, 0 3.3 M0 9.91 C0 8.03, 0 6.15, 0 3.3 M0 3.3 C0 1.1, 1.1 0, 3.3 0 M0 3.3 C0 1.1, 1.1 0, 3.3 0" stroke="transparent" stroke-width="2" fill="none"></path></g><g stroke-linecap="round" transform="translate(1.9451887770392204 281.6532097535937) rotate(315 43.44390808581818 6.603832657770226)"><path d="M3.3 0 C21.66 0, 40.02 0, 83.59 0 C85.79 0, 86.89 1.1, 86.89 3.3 C86.89 5.53, 86.89 7.75, 86.89 9.91 C86.89 12.11, 85.79 13.21, 83.59 13.21 C64.39 13.21, 45.19 13.21, 3.3 13.21 C1.1 13.21, 0 12.11, 0 9.91 C0 8.17, 0 6.43, 0 3.3 C0 1.1, 1.1 0, 3.3 0" stroke="none" stroke-width="0" fill="#a5d8ff"></path><path d="M3.3 0 C20.5 0, 37.71 0, 83.59 0 M3.3 0 C21.68 0, 40.07 0, 83.59 0 M83.59 0 C85.79 0, 86.89 1.1, 86.89 3.3 M83.59 0 C85.79 0, 86.89 1.1, 86.89 3.3 M86.89 3.3 C86.89 5.55, 86.89 7.79, 86.89 9.91 M86.89 3.3 C86.89 5.3, 86.89 7.31, 86.89 9.91 M86.89 9.91 C86.89 12.11, 85.79 13.21, 83.59 13.21 M86.89 9.91 C86.89 12.11, 85.79 13.21, 83.59 13.21 M83.59 13.21 C56.8 13.21, 30.01 13.21, 3.3 13.21 M83.59 13.21 C64.51 13.21, 45.44 13.21, 3.3 13.21 M3.3 13.21 C1.1 13.21, 0 12.11, 0 9.91 M3.3 13.21 C1.1 13.21, 0 12.11, 0 9.91 M0 9.91 C0 7.64, 0 5.37, 0 3.3 M0 9.91 C0 7.43, 0 4.95, 0 3.3 M0 3.3 C0 1.1, 1.1 0, 3.3 0 M0 3.3 C0 1.1, 1.1 0, 3.3 0" stroke="transparent" stroke-width="2" fill="none"></path></g><g stroke-linecap="round" transform="translate(90.22508244817368 311.2772084337221) rotate(315 21.312369489924322 6.603832657770226)"><path d="M3.3 0 C13.25 0, 23.21 0, 39.32 0 C41.52 0, 42.62 1.1, 42.62 3.3 C42.62 5.27, 42.62 7.23, 42.62 9.91 C42.62 12.11, 41.52 13.21, 39.32 13.21 C25.84 13.21, 12.35 13.21, 3.3 13.21 C1.1 13.21, 0 12.11, 0 9.91 C0 8.55, 0 7.19, 0 3.3 C0 1.1, 1.1 0, 3.3 0" stroke="none" stroke-width="0" fill="#228be6"></path><path d="M3.3 0 C17.7 0, 32.1 0, 39.32 0 M3.3 0 C15.59 0, 27.88 0, 39.32 0 M39.32 0 C41.52 0, 42.62 1.1, 42.62 3.3 M39.32 0 C41.52 0, 42.62 1.1, 42.62 3.3 M42.62 3.3 C42.62 5.35, 42.62 7.4, 42.62 9.91 M42.62 3.3 C42.62 5.79, 42.62 8.27, 42.62 9.91 M42.62 9.91 C42.62 12.11, 41.52 13.21, 39.32 13.21 M42.62 9.91 C42.62 12.11, 41.52 13.21, 39.32 13.21 M39.32 13.21 C31.32 13.21, 23.32 13.21, 3.3 13.21 M39.32 13.21 C28.77 13.21, 18.23 13.21, 3.3 13.21 M3.3 13.21 C1.1 13.21, 0 12.11, 0 9.91 M3.3 13.21 C1.1 13.21, 0 12.11, 0 9.91 M0 9.91 C0 8.55, 0 7.19, 0 3.3 M0 9.91 C0 7.99, 0 6.08, 0 3.3 M0 3.3 C0 1.1, 1.1 0, 3.3 0 M0 3.3 C0 1.1, 1.1 0, 3.3 0" stroke="transparent" stroke-width="2" fill="none"></path></g><g stroke-linecap="round" transform="translate(214.825204481485 384.7727366761537) rotate(315 21.312369489924322 6.603832657770226)"><path d="M3.3 0 C16.92 0, 30.54 0, 39.32 0 C41.52 0, 42.62 1.1, 42.62 3.3 C42.62 4.94, 42.62 6.58, 42.62 9.91 C42.62 12.11, 41.52 13.21, 39.32 13.21 C31.72 13.21, 24.13 13.21, 3.3 13.21 C1.1 13.21, 0 12.11, 0 9.91 C0 8.57, 0 7.23, 0 3.3 C0 1.1, 1.1 0, 3.3 0" stroke="none" stroke-width="0" fill="#4dabf7"></path><path d="M3.3 0 C13.8 0, 24.31 0, 39.32 0 M3.3 0 C15.6 0, 27.9 0, 39.32 0 M39.32 0 C41.52 0, 42.62 1.1, 42.62 3.3 M39.32 0 C41.52 0, 42.62 1.1, 42.62 3.3 M42.62 3.3 C42.62 5.31, 42.62 7.31, 42.62 9.91 M42.62 3.3 C42.62 5.48, 42.62 7.66, 42.62 9.91 M42.62 9.91 C42.62 12.11, 41.52 13.21, 39.32 13.21 M42.62 9.91 C42.62 12.11, 41.52 13.21, 39.32 13.21 M39.32 13.21 C25.68 13.21, 12.03 13.21, 3.3 13.21 M39.32 13.21 C31.28 13.21, 23.24 13.21, 3.3 13.21 M3.3 13.21 C1.1 13.21, 0 12.11, 0 9.91 M3.3 13.21 C1.1 13.21, 0 12.11, 0 9.91 M0 9.91 C0 8.51, 0 7.11, 0 3.3 M0 9.91 C0 7.78, 0 5.66, 0 3.3 M0 3.3 C0 1.1, 1.1 0, 3.3 0 M0 3.3 C0 1.1, 1.1 0, 3.3 0" stroke="transparent" stroke-width="2" fill="none"></path></g><g stroke-linecap="round" transform="translate(117.74418771931278 398.0838464654307) rotate(315 34.22244177835597 6.603832657770226)"><path d="M3.3 0 C23.32 0, 43.34 0, 65.14 0 C67.34 0, 68.44 1.1, 68.44 3.3 C68.44 5.55, 68.44 7.81, 68.44 9.91 C68.44 12.11, 67.34 13.21, 65.14 13.21 C49.87 13.21, 34.59 13.21, 3.3 13.21 C1.1 13.21, 0 12.11, 0 9.91 C0 8.39, 0 6.88, 0 3.3 C0 1.1, 1.1 0, 3.3 0" stroke="none" stroke-width="0" fill="#1971c2"></path><path d="M3.3 0 C24.26 0, 45.22 0, 65.14 0 M3.3 0 C18.2 0, 33.1 0, 65.14 0 M65.14 0 C67.34 0, 68.44 1.1, 68.44 3.3 M65.14 0 C67.34 0, 68.44 1.1, 68.44 3.3 M68.44 3.3 C68.44 4.89, 68.44 6.48, 68.44 9.91 M68.44 3.3 C68.44 5.24, 68.44 7.17, 68.44 9.91 M68.44 9.91 C68.44 12.11, 67.34 13.21, 65.14 13.21 M68.44 9.91 C68.44 12.11, 67.34 13.21, 65.14 13.21 M65.14 13.21 C46.31 13.21, 27.47 13.21, 3.3 13.21 M65.14 13.21 C51.75 13.21, 38.36 13.21, 3.3 13.21 M3.3 13.21 C1.1 13.21, 0 12.11, 0 9.91 M3.3 13.21 C1.1 13.21, 0 12.11, 0 9.91 M0 9.91 C0 8.23, 0 6.56, 0 3.3 M0 9.91 C0 7.53, 0 5.16, 0 3.3 M0 3.3 C0 1.1, 1.1 0, 3.3 0 M0 3.3 C0 1.1, 1.1 0, 3.3 0" stroke="transparent" stroke-width="2" fill="none"></path></g></svg>